<svg width="28" height="23" viewBox="0 0 28 23" fill="none" xmlns="http://www.w3.org/2000/svg">
<g clip-path="url(#clip0)">
<path d="M27.671 10.5335L27.7232 10.6045L27.765 10.6755L27.8068 10.7415C27.8068 10.7415 27.8067 10.7872 27.8433 10.8125L27.8747 10.8836C27.8747 10.8836 27.8747 10.9292 27.8747 10.9546C27.8857 10.9792 27.8944 11.0046 27.9008 11.0307C27.9031 11.056 27.9031 11.0815 27.9008 11.1068C27.9008 11.1068 27.9008 11.1576 27.9008 11.1829L27.9008 11.2743C27.9008 11.2743 27.9008 11.3149 27.9008 11.3402C27.9164 11.4445 27.9164 11.5505 27.9008 11.6548C27.9008 11.6548 27.9008 11.7005 27.9008 11.7258L27.9008 11.8121C27.9008 11.8121 27.9008 11.8628 27.9008 11.8882C27.9031 11.9135 27.9031 11.939 27.9008 11.9643C27.8944 11.9904 27.8857 12.0159 27.8747 12.0404C27.8747 12.0658 27.8747 12.0912 27.8747 12.1115L27.8433 12.1825C27.829 12.2068 27.8168 12.2323 27.8068 12.2586L27.765 12.3195C27.765 12.3195 27.7389 12.3702 27.7232 12.3905L27.671 12.4616L27.6239 12.5174C27.5916 12.5598 27.5549 12.5989 27.5143 12.6341L17.3348 22.5282C17.0238 22.8303 16.6021 23 16.1623 23C15.7225 23 15.3007 22.8303 14.9897 22.5282C14.6788 22.2261 14.5041 21.8163 14.5041 21.3891C14.5041 20.9618 14.6788 20.5521 14.9897 20.25L22.3436 13.1059L1.65566 13.1059C1.21655 13.1059 0.795428 12.9365 0.484931 12.6348C0.174435 12.3332 1.93657e-06 11.9241 2.01116e-06 11.4975C2.08574e-06 11.0709 0.174435 10.6618 0.484932 10.3602C0.795428 10.0585 1.21655 9.88908 1.65566 9.88908L22.3436 9.88909L14.9897 2.74503C14.8358 2.59545 14.7136 2.41786 14.6303 2.22241C14.547 2.02697 14.5041 1.81749 14.5041 1.60594C14.5041 1.39439 14.547 1.18492 14.6303 0.989472C14.7136 0.794026 14.8358 0.616437 14.9897 0.466849C15.1437 0.317261 15.3265 0.198602 15.5277 0.117646C15.7289 0.0366906 15.9445 -0.0049773 16.1623 -0.00497726C16.38 -0.00497722 16.5957 0.0366908 16.7969 0.117646C16.998 0.198602 17.1808 0.317262 17.3348 0.466849L27.5143 10.361C27.5549 10.3961 27.5916 10.4352 27.6239 10.4777L27.671 10.5335Z" fill="#DDC6B4"/>
</g>
<defs>
<clipPath id="clip0">
<rect width="28" height="23" fill="white" transform="matrix(1 1.74846e-07 1.74846e-07 -1 0 23)"/>
</clipPath>
</defs>
</svg>
