<svg width="28" height="23" viewBox="0 0 28 23" fill="none" xmlns="http://www.w3.org/2000/svg">
<g clip-path="url(#clip0)">
<path d="M27.671 12.4665L27.7232 12.3955L27.765 12.3245L27.8067 12.2585C27.8067 12.2585 27.8067 12.2128 27.8433 12.1875L27.8747 12.1164C27.8747 12.1164 27.8747 12.0708 27.8747 12.0454C27.8857 12.0208 27.8944 11.9954 27.9008 11.9693C27.9031 11.944 27.9031 11.9185 27.9008 11.8932C27.9008 11.8932 27.9008 11.8424 27.9008 11.8171V11.7257C27.9008 11.7257 27.9008 11.6851 27.9008 11.6598C27.9164 11.5555 27.9164 11.4495 27.9008 11.3452C27.9008 11.3452 27.9008 11.2995 27.9008 11.2742V11.1879C27.9008 11.1879 27.9008 11.1372 27.9008 11.1118C27.9031 11.0865 27.9031 11.061 27.9008 11.0357C27.8944 11.0096 27.8857 10.9841 27.8747 10.9596C27.8747 10.9342 27.8747 10.9088 27.8747 10.8885L27.8433 10.8175C27.829 10.7932 27.8167 10.7677 27.8067 10.7414L27.765 10.6805C27.765 10.6805 27.7388 10.6298 27.7232 10.6095L27.671 10.5384L27.6239 10.4826C27.5916 10.4402 27.5549 10.4011 27.5143 10.3659L17.3348 0.471827C17.0238 0.169721 16.6021 0 16.1623 0C15.7225 0 15.3007 0.169721 14.9897 0.471827C14.6788 0.773932 14.5041 1.18368 14.5041 1.61092C14.5041 2.03816 14.6788 2.4479 14.9897 2.75001L22.3436 9.89406H1.65566C1.21655 9.89406 0.795426 10.0635 0.484929 10.3652C0.174433 10.6668 0 11.0759 0 11.5025C0 11.9291 0.174433 12.3382 0.484929 12.6398C0.795426 12.9415 1.21655 13.1109 1.65566 13.1109H22.3436L14.9897 20.255C14.8358 20.4046 14.7136 20.5821 14.6303 20.7776C14.5469 20.973 14.5041 21.1825 14.5041 21.3941C14.5041 21.6056 14.5469 21.8151 14.6303 22.0105C14.7136 22.206 14.8358 22.3836 14.9897 22.5332C15.1437 22.6827 15.3265 22.8014 15.5277 22.8824C15.7289 22.9633 15.9445 23.005 16.1623 23.005C16.38 23.005 16.5957 22.9633 16.7969 22.8824C16.998 22.8014 17.1808 22.6827 17.3348 22.5332L27.5143 12.639C27.5549 12.6039 27.5916 12.5648 27.6239 12.5223L27.671 12.4665Z" fill="#2C1410"/>
</g>
<defs>
<clipPath id="clip0">
<rect width="28" height="23" fill="white"/>
</clipPath>
</defs>
</svg>
