<svg width="28" height="23" viewBox="0 0 28 23" fill="none" xmlns="http://www.w3.org/2000/svg">
<g clip-path="url(#clip0)">
<path d="M0.329042 12.4665L0.276819 12.3955L0.235035 12.3245L0.193251 12.2585C0.193251 12.2585 0.193254 12.2128 0.156694 12.1875L0.125349 12.1164C0.125349 12.1164 0.125349 12.0708 0.125349 12.0454C0.114311 12.0208 0.105577 11.9954 0.0992413 11.9693C0.0968781 11.944 0.0968781 11.9185 0.0992413 11.8932C0.0992413 11.8932 0.0992413 11.8424 0.0992413 11.8171V11.7257C0.0992413 11.7257 0.0992413 11.6851 0.0992413 11.6598C0.0835972 11.5555 0.0835972 11.4495 0.0992413 11.3452C0.0992413 11.3452 0.0992413 11.2995 0.0992413 11.2742V11.1879C0.0992413 11.1879 0.0992413 11.1372 0.0992413 11.1118C0.0968781 11.0865 0.0968781 11.061 0.0992413 11.0357C0.105577 11.0096 0.114311 10.9841 0.125349 10.9596C0.125349 10.9342 0.125349 10.9088 0.125349 10.8885L0.156694 10.8175C0.171024 10.7932 0.18325 10.7677 0.193251 10.7414L0.235035 10.6805C0.235035 10.6805 0.26115 10.6298 0.276819 10.6095L0.329042 10.5384L0.376055 10.4826C0.408377 10.4402 0.445129 10.4011 0.485731 10.3659L10.6652 0.471827C10.9762 0.169721 11.3979 0 11.8377 0C12.2775 0 12.6993 0.169721 13.0103 0.471827C13.3212 0.773932 13.4959 1.18368 13.4959 1.61092C13.4959 2.03816 13.3212 2.4479 13.0103 2.75001L5.65641 9.89406H26.3443C26.7834 9.89406 27.2046 10.0635 27.5151 10.3652C27.8256 10.6668 28 11.0759 28 11.5025C28 11.9291 27.8256 12.3382 27.5151 12.6398C27.2046 12.9415 26.7834 13.1109 26.3443 13.1109H5.65641L13.0103 20.255C13.1642 20.4046 13.2864 20.5821 13.3697 20.7776C13.4531 20.973 13.4959 21.1825 13.4959 21.3941C13.4959 21.6056 13.4531 21.8151 13.3697 22.0105C13.2864 22.206 13.1642 22.3836 13.0103 22.5332C12.8563 22.6827 12.6735 22.8014 12.4723 22.8824C12.2711 22.9633 12.0555 23.005 11.8377 23.005C11.62 23.005 11.4043 22.9633 11.2031 22.8824C11.002 22.8014 10.8192 22.6827 10.6652 22.5332L0.485731 12.639C0.445129 12.6039 0.408377 12.5648 0.376055 12.5223L0.329042 12.4665Z" fill="#2C1410"/>
</g>
<defs>
<clipPath id="clip0">
<rect width="28" height="23" fill="white" transform="matrix(-1 0 0 1 28 0)"/>
</clipPath>
</defs>
</svg>
