<svg width="119" height="126" viewBox="0 0 119 126" fill="none" xmlns="http://www.w3.org/2000/svg">
<g clip-path="url(#clip0)">
<path d="M115.69 119.73C114.215 119.73 113.02 120.925 113.02 122.4C113.02 123.875 114.215 125.07 115.69 125.07C117.164 125.07 118.36 123.875 118.36 122.4C118.36 120.925 117.164 119.73 115.69 119.73Z" stroke="#85383D" stroke-width="0.5" stroke-linecap="round" stroke-linejoin="round"/>
<path d="M115.71 102.67C116.238 102.67 116.755 102.827 117.194 103.121C117.634 103.415 117.976 103.832 118.178 104.321C118.379 104.809 118.432 105.346 118.328 105.865C118.224 106.383 117.969 106.859 117.594 107.232C117.22 107.605 116.743 107.858 116.225 107.96C115.706 108.062 115.169 108.008 114.681 107.804C114.193 107.6 113.777 107.256 113.485 106.816C113.193 106.376 113.038 105.859 113.04 105.33C113.043 104.624 113.325 103.947 113.825 103.448C114.326 102.95 115.004 102.67 115.71 102.67Z" stroke="#85383D" stroke-width="0.5" stroke-linecap="round" stroke-linejoin="round"/>
<path d="M115.69 85.5901C114.215 85.5901 113.02 86.7855 113.02 88.2601C113.02 89.7347 114.215 90.9301 115.69 90.9301C117.164 90.9301 118.36 89.7347 118.36 88.2601C118.36 86.7855 117.164 85.5901 115.69 85.5901Z" stroke="#85383D" stroke-width="0.5" stroke-linecap="round" stroke-linejoin="round"/>
<path d="M115.69 68.5301C114.215 68.5301 113.02 69.7255 113.02 71.2001C113.02 72.6747 114.215 73.8701 115.69 73.8701C117.164 73.8701 118.36 72.6747 118.36 71.2001C118.36 69.7255 117.164 68.5301 115.69 68.5301Z" stroke="#85383D" stroke-width="0.5" stroke-linecap="round" stroke-linejoin="round"/>
<path d="M115.71 51.46C116.238 51.46 116.754 51.6166 117.193 51.91C117.632 52.2034 117.975 52.6204 118.177 53.1083C118.379 53.5962 118.432 54.133 118.329 54.6509C118.226 55.1689 117.971 55.6446 117.598 56.018C117.224 56.3914 116.749 56.6457 116.231 56.7487C115.713 56.8518 115.176 56.7989 114.688 56.5968C114.2 56.3947 113.783 56.0525 113.49 55.6134C113.196 55.1743 113.04 54.6581 113.04 54.13C113.04 53.4219 113.321 52.7428 113.822 52.2421C114.323 51.7413 115.002 51.46 115.71 51.46Z" stroke="#85383D" stroke-width="0.5" stroke-linecap="round" stroke-linejoin="round"/>
<path d="M115.69 34.3901C114.215 34.3901 113.02 35.5855 113.02 37.0601C113.02 38.5347 114.215 39.7301 115.69 39.7301C117.164 39.7301 118.36 38.5347 118.36 37.0601C118.36 35.5855 117.164 34.3901 115.69 34.3901Z" stroke="#85383D" stroke-width="0.5" stroke-linecap="round" stroke-linejoin="round"/>
<path d="M115.71 17.32C116.238 17.32 116.754 17.4766 117.193 17.77C117.632 18.0634 117.975 18.4804 118.177 18.9683C118.379 19.4561 118.432 19.993 118.329 20.5109C118.226 21.0289 117.971 21.5046 117.598 21.878C117.224 22.2514 116.749 22.5057 116.231 22.6087C115.713 22.7118 115.176 22.6589 114.688 22.4568C114.2 22.2547 113.783 21.9125 113.49 21.4734C113.196 21.0343 113.04 20.5181 113.04 19.99C113.04 19.2819 113.321 18.6028 113.822 18.1021C114.323 17.6013 115.002 17.32 115.71 17.32Z" stroke="#85383D" stroke-width="0.5" stroke-linecap="round" stroke-linejoin="round"/>
<path d="M115.71 0.250087C116.238 0.250087 116.754 0.406678 117.193 0.700061C117.632 0.993445 117.975 1.41044 118.177 1.89832C118.379 2.3862 118.432 2.92305 118.329 3.44097C118.226 3.9589 117.971 4.43466 117.598 4.80806C117.224 5.18147 116.749 5.43576 116.231 5.53878C115.713 5.64181 115.176 5.58893 114.688 5.38684C114.2 5.18476 113.783 4.84254 113.49 4.40346C113.196 3.96438 113.04 3.44816 113.04 2.92009C113.043 2.21277 113.325 1.53517 113.825 1.03502C114.325 0.53487 115.003 0.252722 115.71 0.250087V0.250087Z" stroke="#85383D" stroke-width="0.5" stroke-linecap="round" stroke-linejoin="round"/>
<path d="M99.58 119.74C100.286 119.74 100.964 120.02 101.464 120.519C101.965 121.017 102.247 121.694 102.25 122.4C102.25 123.108 101.969 123.787 101.468 124.288C100.967 124.789 100.288 125.07 99.58 125.07C98.8719 125.07 98.1927 124.789 97.692 124.288C97.1913 123.787 96.91 123.108 96.91 122.4C96.9126 121.694 97.1951 121.017 97.6956 120.519C98.196 120.02 98.8736 119.74 99.58 119.74V119.74Z" stroke="#85383D" stroke-width="0.5" stroke-linecap="round" stroke-linejoin="round"/>
<path d="M99.58 102.67C100.109 102.67 100.625 102.827 101.064 103.121C101.504 103.415 101.846 103.832 102.048 104.321C102.25 104.809 102.302 105.346 102.198 105.865C102.094 106.383 101.839 106.859 101.464 107.232C101.09 107.605 100.613 107.858 100.095 107.96C99.5762 108.062 99.039 108.008 98.5513 107.804C98.0636 107.6 97.6473 107.256 97.3551 106.816C97.0629 106.376 96.908 105.859 96.91 105.33C96.9127 104.624 97.1951 103.947 97.6956 103.448C98.196 102.95 98.8736 102.67 99.58 102.67V102.67Z" stroke="#85383D" stroke-width="0.5" stroke-linecap="round" stroke-linejoin="round"/>
<path d="M99.58 85.6001C100.109 85.6001 100.625 85.7569 101.064 86.0507C101.504 86.3446 101.846 86.7622 102.048 87.2506C102.25 87.7391 102.302 88.2764 102.198 88.7946C102.094 89.3128 101.839 89.7886 101.464 90.1616C101.09 90.5346 100.613 90.7881 100.095 90.89C99.5762 90.9919 99.039 90.9376 98.5513 90.7339C98.0636 90.5303 97.6473 90.1865 97.3551 89.7462C97.0629 89.3058 96.908 88.7886 96.91 88.2601C96.9127 87.5537 97.1951 86.8771 97.6956 86.3785C98.196 85.88 98.8736 85.6001 99.58 85.6001V85.6001Z" stroke="#85383D" stroke-width="0.5" stroke-linecap="round" stroke-linejoin="round"/>
<path d="M99.58 68.5301C100.108 68.5301 100.624 68.6867 101.063 68.9801C101.502 69.2735 101.845 69.6905 102.047 70.1784C102.249 70.6662 102.302 71.2031 102.199 71.721C102.096 72.2389 101.841 72.7147 101.468 73.0881C101.095 73.4615 100.619 73.7158 100.101 73.8188C99.583 73.9218 99.0461 73.869 98.5582 73.6669C98.0703 73.4648 97.6533 73.1226 97.36 72.6835C97.0666 72.2444 96.91 71.7282 96.91 71.2001C96.91 70.492 97.1913 69.8129 97.692 69.3121C98.1927 68.8114 98.8719 68.5301 99.58 68.5301Z" stroke="#85383D" stroke-width="0.5" stroke-linecap="round" stroke-linejoin="round"/>
<path d="M99.58 51.46C100.108 51.46 100.624 51.6166 101.063 51.91C101.502 52.2034 101.845 52.6204 102.047 53.1083C102.249 53.5962 102.302 54.133 102.199 54.6509C102.096 55.1689 101.841 55.6446 101.468 56.018C101.095 56.3914 100.619 56.6457 100.101 56.7487C99.583 56.8518 99.0461 56.7989 98.5582 56.5968C98.0703 56.3947 97.6533 56.0525 97.36 55.6134C97.0666 55.1743 96.91 54.6581 96.91 54.13C96.91 53.4219 97.1913 52.7428 97.692 52.2421C98.1927 51.7413 98.8719 51.46 99.58 51.46Z" stroke="#85383D" stroke-width="0.5" stroke-linecap="round" stroke-linejoin="round"/>
<path d="M99.58 34.3901C100.108 34.3901 100.624 34.5467 101.063 34.8401C101.502 35.1335 101.845 35.5505 102.047 36.0383C102.249 36.5262 102.302 37.0631 102.199 37.581C102.096 38.0989 101.841 38.5747 101.468 38.9481C101.095 39.3215 100.619 39.5758 100.101 39.6788C99.583 39.7818 99.0461 39.7289 98.5582 39.5269C98.0703 39.3248 97.6533 38.9826 97.36 38.5435C97.0666 38.1044 96.91 37.5882 96.91 37.0601C96.91 36.352 97.1913 35.6728 97.692 35.1721C98.1927 34.6714 98.8719 34.3901 99.58 34.3901Z" stroke="#85383D" stroke-width="0.5" stroke-linecap="round" stroke-linejoin="round"/>
<path d="M99.58 17.32C100.108 17.32 100.624 17.4766 101.063 17.77C101.502 18.0634 101.845 18.4804 102.047 18.9683C102.249 19.4561 102.302 19.993 102.199 20.5109C102.096 21.0289 101.841 21.5046 101.468 21.878C101.095 22.2514 100.619 22.5057 100.101 22.6087C99.583 22.7118 99.0461 22.6589 98.5582 22.4568C98.0703 22.2547 97.6533 21.9125 97.36 21.4734C97.0666 21.0343 96.91 20.5181 96.91 19.99C96.91 19.2819 97.1913 18.6028 97.692 18.1021C98.1927 17.6013 98.8719 17.32 99.58 17.32Z" stroke="#85383D" stroke-width="0.5" stroke-linecap="round" stroke-linejoin="round"/>
<path d="M83.4697 119.73C81.995 119.73 80.7996 120.925 80.7996 122.4C80.7996 123.875 81.995 125.07 83.4697 125.07C84.9443 125.07 86.1396 123.875 86.1396 122.4C86.1396 120.925 84.9443 119.73 83.4697 119.73Z" stroke="#85383D" stroke-width="0.5" stroke-linecap="round" stroke-linejoin="round"/>
<path d="M83.4697 102.67C83.9982 102.67 84.5148 102.827 84.9541 103.121C85.3934 103.415 85.7356 103.832 85.9374 104.321C86.1392 104.809 86.1914 105.346 86.0876 105.865C85.9838 106.383 85.7285 106.859 85.3541 107.232C84.9797 107.605 84.503 107.858 83.9844 107.96C83.4658 108.062 82.9287 108.008 82.441 107.804C81.9533 107.6 81.5369 107.256 81.2448 106.816C80.9526 106.376 80.7977 105.859 80.7997 105.33C80.8023 104.624 81.0848 103.947 81.5852 103.448C82.0857 102.95 82.7633 102.67 83.4697 102.67V102.67Z" stroke="#85383D" stroke-width="0.5" stroke-linecap="round" stroke-linejoin="round"/>
<path d="M83.4697 85.5901C81.995 85.5901 80.7996 86.7855 80.7996 88.2601C80.7996 89.7347 81.995 90.9301 83.4697 90.9301C84.9443 90.9301 86.1396 89.7347 86.1396 88.2601C86.1396 86.7855 84.9443 85.5901 83.4697 85.5901Z" stroke="#85383D" stroke-width="0.5" stroke-linecap="round" stroke-linejoin="round"/>
<path d="M83.4697 68.5301C81.995 68.5301 80.7996 69.7255 80.7996 71.2001C80.7996 72.6747 81.995 73.8701 83.4697 73.8701C84.9443 73.8701 86.1396 72.6747 86.1396 71.2001C86.1396 69.7255 84.9443 68.5301 83.4697 68.5301Z" stroke="#85383D" stroke-width="0.5" stroke-linecap="round" stroke-linejoin="round"/>
<path d="M83.4697 51.46C83.9977 51.46 84.514 51.6166 84.953 51.91C85.3921 52.2034 85.7343 52.6204 85.9364 53.1083C86.1385 53.5962 86.1914 54.133 86.0883 54.6509C85.9853 55.1689 85.731 55.6446 85.3576 56.018C84.9842 56.3914 84.5085 56.6457 83.9905 56.7487C83.4726 56.8518 82.9358 56.7989 82.4479 56.5968C81.96 56.3947 81.543 56.0525 81.2496 55.6134C80.9562 55.1743 80.7996 54.6581 80.7996 54.13C80.7996 53.4219 81.081 52.7428 81.5817 52.2421C82.0824 51.7413 82.7615 51.46 83.4697 51.46Z" stroke="#85383D" stroke-width="0.5" stroke-linecap="round" stroke-linejoin="round"/>
<path d="M83.4697 34.3901C81.995 34.3901 80.7996 35.5855 80.7996 37.0601C80.7996 38.5347 81.995 39.7301 83.4697 39.7301C84.9443 39.7301 86.1396 38.5347 86.1396 37.0601C86.1396 35.5855 84.9443 34.3901 83.4697 34.3901Z" stroke="#85383D" stroke-width="0.5" stroke-linecap="round" stroke-linejoin="round"/>
<path d="M67.3598 119.74C68.0662 119.74 68.7438 120.02 69.2442 120.519C69.7447 121.017 70.0271 121.694 70.0298 122.4C70.0298 123.108 69.7485 123.787 69.2477 124.288C68.747 124.789 68.0679 125.07 67.3598 125.07C66.6551 125.065 65.9811 124.781 65.4847 124.281C64.9883 123.781 64.7098 123.105 64.7098 122.4C64.7124 121.697 64.9921 121.024 65.4882 120.526C65.9843 120.028 66.6568 119.745 67.3598 119.74V119.74Z" stroke="#85383D" stroke-width="0.5" stroke-linecap="round" stroke-linejoin="round"/>
<path d="M67.3598 102.67C67.8892 102.666 68.4077 102.82 68.8497 103.111C69.2916 103.402 69.6369 103.819 69.8417 104.307C70.0466 104.795 70.1018 105.333 70.0002 105.852C69.8986 106.372 69.6449 106.849 69.2713 107.224C68.8977 107.599 68.4211 107.855 67.902 107.958C67.3828 108.062 66.8447 108.009 66.3558 107.806C65.8669 107.603 65.4494 107.259 65.1564 106.818C64.8633 106.377 64.7079 105.859 64.7098 105.33C64.7124 104.627 64.9921 103.954 65.4883 103.456C65.9844 102.958 66.6569 102.675 67.3598 102.67Z" stroke="#85383D" stroke-width="0.5" stroke-linecap="round" stroke-linejoin="round"/>
<path d="M67.3598 85.6C67.8892 85.5961 68.4077 85.7495 68.8497 86.0409C69.2916 86.3323 69.6369 86.7485 69.8417 87.2366C70.0466 87.7247 70.1018 88.2627 70.0002 88.7822C69.8986 89.3017 69.6449 89.7793 69.2713 90.1544C68.8977 90.5294 68.4211 90.7849 67.902 90.8884C67.3828 90.9919 66.8447 90.9388 66.3558 90.7358C65.8669 90.5327 65.4494 90.189 65.1564 89.7482C64.8633 89.3073 64.7079 88.7894 64.7098 88.26C64.7124 87.5571 64.9921 86.8835 65.4883 86.3855C65.9844 85.8875 66.6569 85.6053 67.3598 85.6V85.6Z" stroke="#85383D" stroke-width="0.5" stroke-linecap="round" stroke-linejoin="round"/>
<path d="M67.3598 68.5301C67.8887 68.5261 68.4069 68.6793 68.8486 68.9703C69.2903 69.2613 69.6356 69.6769 69.8408 70.1644C70.0459 70.6519 70.1017 71.1894 70.0009 71.7086C69.9002 72.2278 69.6475 72.7054 69.2749 73.0809C68.9023 73.4563 68.4266 73.7126 67.9081 73.8172C67.3896 73.9219 66.8518 73.8702 66.3627 73.6687C65.8737 73.4672 65.4555 73.125 65.1612 72.6855C64.8669 72.246 64.7098 71.729 64.7098 71.2001C64.7098 70.4954 64.9883 69.8193 65.4847 69.3191C65.9811 68.819 66.6551 68.5353 67.3598 68.5301V68.5301Z" stroke="#85383D" stroke-width="0.5" stroke-linecap="round" stroke-linejoin="round"/>
<path d="M67.3598 51.4601C67.8887 51.4562 68.4069 51.6094 68.8486 51.9003C69.2903 52.1913 69.6356 52.6069 69.8408 53.0944C70.0459 53.5819 70.1017 54.1194 70.0009 54.6386C69.9002 55.1579 69.6475 55.6355 69.2749 56.0109C68.9023 56.3863 68.4266 56.6426 67.9081 56.7473C67.3896 56.8519 66.8518 56.8002 66.3627 56.5987C65.8737 56.3973 65.4555 56.0551 65.1612 55.6156C64.8669 55.176 64.7098 54.659 64.7098 54.1301C64.7098 53.4254 64.9883 52.7493 65.4847 52.2492C65.9811 51.749 66.6551 51.4654 67.3598 51.4601Z" stroke="#85383D" stroke-width="0.5" stroke-linecap="round" stroke-linejoin="round"/>
<path d="M51.2499 119.73C49.7753 119.73 48.5799 120.925 48.5799 122.4C48.5799 123.875 49.7753 125.07 51.2499 125.07C52.7245 125.07 53.9199 123.875 53.9199 122.4C53.9199 120.925 52.7245 119.73 51.2499 119.73Z" stroke="#85383D" stroke-width="0.5" stroke-linecap="round" stroke-linejoin="round"/>
<path d="M51.25 102.67C51.7785 102.67 52.2951 102.827 52.7344 103.121C53.1737 103.415 53.5159 103.832 53.7176 104.321C53.9194 104.809 53.9717 105.346 53.8679 105.865C53.764 106.383 53.5088 106.859 53.1344 107.232C52.76 107.605 52.2833 107.858 51.7647 107.96C51.2461 108.062 50.7089 108.008 50.2212 107.804C49.7335 107.6 49.3172 107.256 49.025 106.816C48.7329 106.376 48.578 105.859 48.5799 105.33C48.5826 104.624 48.8651 103.947 49.3655 103.448C49.8659 102.95 50.5436 102.67 51.25 102.67V102.67Z" stroke="#85383D" stroke-width="0.5" stroke-linecap="round" stroke-linejoin="round"/>
<path d="M51.2499 85.5901C49.7753 85.5901 48.5799 86.7855 48.5799 88.2601C48.5799 89.7347 49.7753 90.9301 51.2499 90.9301C52.7245 90.9301 53.9199 89.7347 53.9199 88.2601C53.9199 86.7855 52.7245 85.5901 51.2499 85.5901Z" stroke="#85383D" stroke-width="0.5" stroke-linecap="round" stroke-linejoin="round"/>
<path d="M51.2499 68.5301C49.7753 68.5301 48.5799 69.7255 48.5799 71.2001C48.5799 72.6747 49.7753 73.8701 51.2499 73.8701C52.7245 73.8701 53.9199 72.6747 53.9199 71.2001C53.9199 69.7255 52.7245 68.5301 51.2499 68.5301Z" stroke="#85383D" stroke-width="0.5" stroke-linecap="round" stroke-linejoin="round"/>
<path d="M35.14 119.74C35.8464 119.74 36.5241 120.02 37.0245 120.519C37.5249 121.017 37.8074 121.694 37.8101 122.4C37.8101 123.108 37.5287 123.787 37.028 124.288C36.5273 124.789 35.8482 125.07 35.14 125.07C34.789 125.071 34.4413 125.003 34.1167 124.87C33.7922 124.736 33.4973 124.539 33.2491 124.291C33.0009 124.043 32.8043 123.748 32.6706 123.423C32.5369 123.099 32.4687 122.751 32.4701 122.4C32.4701 122.05 32.5392 121.703 32.6735 121.38C32.8078 121.056 33.0046 120.763 33.2527 120.516C33.5007 120.268 33.7952 120.073 34.119 119.94C34.4429 119.807 34.7899 119.739 35.14 119.74V119.74Z" stroke="#85383D" stroke-width="0.5" stroke-linecap="round" stroke-linejoin="round"/>
<path d="M35.1401 102.67C35.6686 102.67 36.1852 102.827 36.6245 103.121C37.0638 103.415 37.406 103.832 37.6078 104.321C37.8096 104.809 37.8619 105.346 37.758 105.865C37.6542 106.383 37.3989 106.859 37.0245 107.232C36.6501 107.605 36.1734 107.858 35.6548 107.96C35.1362 108.062 34.5991 108.008 34.1113 107.804C33.6236 107.6 33.2074 107.256 32.9152 106.816C32.623 106.376 32.4681 105.859 32.4701 105.33C32.4727 104.624 32.7552 103.947 33.2556 103.448C33.7561 102.95 34.4337 102.67 35.1401 102.67V102.67Z" stroke="#85383D" stroke-width="0.5" stroke-linecap="round" stroke-linejoin="round"/>
<path d="M35.1401 85.6001C35.6686 85.6001 36.1852 85.7569 36.6245 86.0507C37.0638 86.3446 37.406 86.7622 37.6078 87.2506C37.8096 87.7391 37.8619 88.2764 37.758 88.7946C37.6542 89.3128 37.3989 89.7886 37.0245 90.1616C36.6501 90.5346 36.1734 90.7881 35.6548 90.89C35.1362 90.9919 34.5991 90.9376 34.1113 90.7339C33.6236 90.5303 33.2074 90.1865 32.9152 89.7462C32.623 89.3058 32.4681 88.7886 32.4701 88.2601C32.4727 87.5537 32.7552 86.8771 33.2556 86.3785C33.7561 85.88 34.4337 85.6001 35.1401 85.6001V85.6001Z" stroke="#85383D" stroke-width="0.5" stroke-linecap="round" stroke-linejoin="round"/>
<path d="M19.0299 119.74C19.3809 119.737 19.729 119.804 20.054 119.937C20.3791 120.069 20.6747 120.265 20.9238 120.512C21.1729 120.759 21.3706 121.053 21.5056 121.377C21.6405 121.702 21.71 122.049 21.7099 122.4C21.7113 122.75 21.6434 123.097 21.5103 123.421C21.3772 123.745 21.1815 124.039 20.9344 124.287C20.6873 124.535 20.3936 124.732 20.0702 124.867C19.7468 125.001 19.4001 125.07 19.0499 125.07C18.6989 125.071 18.3512 125.003 18.0266 124.87C17.7021 124.736 17.4072 124.539 17.159 124.291C16.9108 124.043 16.7142 123.748 16.5805 123.423C16.4468 123.099 16.3786 122.751 16.38 122.4C16.38 121.696 16.6588 121.021 17.1555 120.523C17.6522 120.024 18.3262 119.743 19.0299 119.74V119.74Z" stroke="#85383D" stroke-width="0.5" stroke-linecap="round" stroke-linejoin="round"/>
<path d="M19.0297 102.67C19.5582 102.67 20.0749 102.827 20.5142 103.121C20.9534 103.415 21.2956 103.832 21.4974 104.321C21.6992 104.809 21.7515 105.346 21.6477 105.865C21.5438 106.383 21.2886 106.859 20.9141 107.232C20.5397 107.605 20.0631 107.858 19.5445 107.96C19.0259 108.062 18.4887 108.008 18.001 107.804C17.5133 107.6 17.097 107.256 16.8048 106.816C16.5127 106.376 16.3578 105.859 16.3597 105.33C16.3597 104.98 16.4289 104.633 16.5632 104.31C16.6975 103.986 16.8943 103.693 17.1424 103.446C17.3904 103.198 17.6848 103.003 18.0087 102.87C18.3326 102.737 18.6796 102.669 19.0297 102.67Z" stroke="#85383D" stroke-width="0.5" stroke-linecap="round" stroke-linejoin="round"/>
<path d="M2.92006 119.74C3.62553 119.74 4.30213 120.02 4.80098 120.519C5.29982 121.018 5.58006 121.695 5.58006 122.4C5.58138 122.75 5.51356 123.097 5.38047 123.421C5.24739 123.745 5.05165 124.039 4.80452 124.287C4.55738 124.535 4.2637 124.732 3.94032 124.867C3.61694 125.001 3.27021 125.07 2.92006 125.07C2.56906 125.071 2.22128 125.003 1.89674 124.87C1.5722 124.736 1.27735 124.539 1.02916 124.291C0.78096 124.043 0.584316 123.748 0.450604 123.423C0.316892 123.099 0.248751 122.751 0.250073 122.4C0.25007 122.05 0.319201 121.703 0.453503 121.38C0.587806 121.056 0.784632 120.763 1.0327 120.516C1.28076 120.268 1.57518 120.073 1.89906 119.94C2.22294 119.807 2.5699 119.739 2.92006 119.74V119.74Z" stroke="#85383D" stroke-width="0.5" stroke-linecap="round" stroke-linejoin="round"/>
</g>
<defs>
<clipPath id="clip0">
<rect width="118.61" height="125.32" fill="white" transform="translate(118.61 125.32) rotate(-180)"/>
</clipPath>
</defs>
</svg>
