<svg width="119" height="126" viewBox="0 0 119 126" fill="none" xmlns="http://www.w3.org/2000/svg">
<g clip-path="url(#clip0)">
<path d="M2.92 5.59C4.3946 5.59 5.59 4.3946 5.59 2.92C5.59 1.4454 4.3946 0.25 2.92 0.25C1.4454 0.25 0.25 1.4454 0.25 2.92C0.25 4.3946 1.4454 5.59 2.92 5.59Z" stroke="#85383D" stroke-width="0.5" stroke-linecap="round" stroke-linejoin="round"/>
<path d="M2.89996 22.6501C2.37146 22.6501 1.85485 22.4932 1.41555 22.1994C0.976258 21.9056 0.634049 21.488 0.43226 20.9995C0.230471 20.511 0.178187 19.9737 0.282022 19.4555C0.385858 18.9373 0.641135 18.4616 1.01554 18.0885C1.38995 17.7155 1.86663 17.462 2.38522 17.3601C2.9038 17.2583 3.44097 17.3126 3.92867 17.5162C4.41638 17.7198 4.83268 18.0636 5.12486 18.504C5.41703 18.9444 5.57193 19.4616 5.56996 19.9901C5.56731 20.6965 5.28484 21.373 4.7844 21.8716C4.28397 22.3701 3.60636 22.6501 2.89996 22.6501Z" stroke="#85383D" stroke-width="0.5" stroke-linecap="round" stroke-linejoin="round"/>
<path d="M2.92 39.73C4.3946 39.73 5.59 38.5346 5.59 37.06C5.59 35.5854 4.3946 34.39 2.92 34.39C1.4454 34.39 0.25 35.5854 0.25 37.06C0.25 38.5346 1.4454 39.73 2.92 39.73Z" stroke="#85383D" stroke-width="0.5" stroke-linecap="round" stroke-linejoin="round"/>
<path d="M2.92 56.79C4.3946 56.79 5.59 55.5945 5.59 54.1199C5.59 52.6453 4.3946 51.45 2.92 51.45C1.4454 51.45 0.25 52.6453 0.25 54.1199C0.25 55.5945 1.4454 56.79 2.92 56.79Z" stroke="#85383D" stroke-width="0.5" stroke-linecap="round" stroke-linejoin="round"/>
<path d="M2.89998 73.86C2.3719 73.86 1.85569 73.7034 1.41661 73.41C0.977534 73.1167 0.635316 72.6997 0.43323 72.2118C0.231144 71.7239 0.17826 71.1871 0.281283 70.6691C0.384305 70.1512 0.638605 69.6755 1.01201 69.302C1.38542 68.9286 1.86116 68.6743 2.37909 68.5713C2.89702 68.4683 3.43386 68.5212 3.92174 68.7233C4.40962 68.9253 4.82661 69.2676 5.12 69.7067C5.41338 70.1457 5.56998 70.6619 5.56998 71.19C5.56998 71.8982 5.28867 72.5773 4.78795 73.078C4.28723 73.5787 3.60811 73.86 2.89998 73.86Z" stroke="#85383D" stroke-width="0.5" stroke-linecap="round" stroke-linejoin="round"/>
<path d="M2.92 90.93C4.3946 90.93 5.59 89.7346 5.59 88.26C5.59 86.7854 4.3946 85.59 2.92 85.59C1.4454 85.59 0.25 86.7854 0.25 88.26C0.25 89.7346 1.4454 90.93 2.92 90.93Z" stroke="#85383D" stroke-width="0.5" stroke-linecap="round" stroke-linejoin="round"/>
<path d="M2.89998 108C2.3719 108 1.85569 107.843 1.41661 107.55C0.977534 107.257 0.635316 106.84 0.43323 106.352C0.231144 105.864 0.17826 105.327 0.281283 104.809C0.384305 104.291 0.638605 103.815 1.01201 103.442C1.38542 103.069 1.86116 102.814 2.37909 102.711C2.89702 102.608 3.43386 102.661 3.92174 102.863C4.40962 103.065 4.82661 103.408 5.12 103.847C5.41338 104.286 5.56998 104.802 5.56998 105.33C5.56998 106.038 5.28867 106.717 4.78795 107.218C4.28723 107.719 3.60811 108 2.89998 108Z" stroke="#85383D" stroke-width="0.5" stroke-linecap="round" stroke-linejoin="round"/>
<path d="M2.89998 125.07C2.3719 125.07 1.85569 124.913 1.41661 124.62C0.977534 124.327 0.635316 123.91 0.43323 123.422C0.231144 122.934 0.17826 122.397 0.281283 121.879C0.384305 121.361 0.638605 120.885 1.01201 120.512C1.38542 120.139 1.86116 119.884 2.37909 119.781C2.89702 119.678 3.43386 119.731 3.92174 119.933C4.40962 120.135 4.82661 120.478 5.12 120.917C5.41338 121.356 5.56998 121.872 5.56998 122.4C5.56734 123.107 5.2852 123.785 4.78505 124.285C4.2849 124.785 3.6073 125.067 2.89998 125.07V125.07Z" stroke="#85383D" stroke-width="0.5" stroke-linecap="round" stroke-linejoin="round"/>
<path d="M19.0299 5.58C18.3235 5.58 17.6459 5.30008 17.1454 4.80151C16.645 4.30295 16.3625 3.62639 16.3599 2.92C16.3599 2.21187 16.6412 1.53275 17.1419 1.03202C17.6426 0.531303 18.3217 0.25 19.0299 0.25C19.738 0.25 20.4171 0.531303 20.9178 1.03202C21.4186 1.53275 21.6999 2.21187 21.6999 2.92C21.6972 3.62639 21.4147 4.30295 20.9143 4.80151C20.4139 5.30008 19.7363 5.58 19.0299 5.58V5.58Z" stroke="#85383D" stroke-width="0.5" stroke-linecap="round" stroke-linejoin="round"/>
<path d="M19.0299 22.6501C18.5014 22.6501 17.9847 22.4932 17.5454 22.1994C17.1062 21.9056 16.7639 21.488 16.5621 20.9995C16.3604 20.511 16.3081 19.9737 16.4119 19.4555C16.5157 18.9373 16.771 18.4616 17.1454 18.0885C17.5198 17.7155 17.9965 17.462 18.5151 17.3601C19.0337 17.2583 19.5709 17.3126 20.0586 17.5162C20.5463 17.7198 20.9626 18.0636 21.2547 18.504C21.5469 18.9444 21.7018 19.4616 21.6998 19.9901C21.6972 20.6965 21.4147 21.373 20.9143 21.8716C20.4138 22.3701 19.7363 22.6501 19.0299 22.6501V22.6501Z" stroke="#85383D" stroke-width="0.5" stroke-linecap="round" stroke-linejoin="round"/>
<path d="M19.0299 39.72C18.5014 39.72 17.9847 39.5632 17.5454 39.2693C17.1062 38.9755 16.7639 38.5579 16.5621 38.0694C16.3604 37.581 16.3081 37.0436 16.4119 36.5254C16.5157 36.0072 16.771 35.5315 17.1454 35.1585C17.5198 34.7855 17.9965 34.532 18.5151 34.4301C19.0337 34.3282 19.5709 34.3825 20.0586 34.5861C20.5463 34.7897 20.9626 35.1335 21.2547 35.5739C21.5469 36.0143 21.7018 36.5315 21.6998 37.06C21.6972 37.7664 21.4147 38.443 20.9143 38.9415C20.4138 39.4401 19.7363 39.72 19.0299 39.72V39.72Z" stroke="#85383D" stroke-width="0.5" stroke-linecap="round" stroke-linejoin="round"/>
<path d="M19.0299 56.79C18.5018 56.79 17.9856 56.6334 17.5465 56.34C17.1074 56.0466 16.7652 55.6296 16.5631 55.1417C16.361 54.6538 16.3081 54.117 16.4112 53.5991C16.5142 53.0811 16.7685 52.6054 17.1419 52.232C17.5153 51.8586 17.991 51.6043 18.509 51.5013C19.0269 51.3982 19.5638 51.4511 20.0516 51.6532C20.5395 51.8553 20.9565 52.1975 21.2499 52.6366C21.5433 53.0757 21.6999 53.5919 21.6999 54.12C21.6999 54.8281 21.4186 55.5072 20.9178 56.0079C20.4171 56.5086 19.738 56.79 19.0299 56.79Z" stroke="#85383D" stroke-width="0.5" stroke-linecap="round" stroke-linejoin="round"/>
<path d="M19.0299 73.86C18.5018 73.86 17.9856 73.7034 17.5465 73.41C17.1074 73.1167 16.7652 72.6997 16.5631 72.2118C16.361 71.7239 16.3081 71.1871 16.4112 70.6691C16.5142 70.1512 16.7685 69.6755 17.1419 69.302C17.5153 68.9286 17.991 68.6743 18.509 68.5713C19.0269 68.4683 19.5638 68.5212 20.0516 68.7233C20.5395 68.9253 20.9565 69.2676 21.2499 69.7067C21.5433 70.1457 21.6999 70.6619 21.6999 71.19C21.6999 71.8982 21.4186 72.5773 20.9178 73.078C20.4171 73.5787 19.738 73.86 19.0299 73.86Z" stroke="#85383D" stroke-width="0.5" stroke-linecap="round" stroke-linejoin="round"/>
<path d="M19.0299 90.93C18.5018 90.93 17.9856 90.7734 17.5465 90.48C17.1074 90.1866 16.7652 89.7696 16.5631 89.2817C16.361 88.7939 16.3081 88.257 16.4112 87.7391C16.5142 87.2211 16.7685 86.7454 17.1419 86.372C17.5153 85.9986 17.991 85.7443 18.509 85.6413C19.0269 85.5382 19.5638 85.5911 20.0516 85.7932C20.5395 85.9953 20.9565 86.3375 21.2499 86.7766C21.5433 87.2157 21.6999 87.7319 21.6999 88.26C21.6999 88.9681 21.4186 89.6472 20.9178 90.1479C20.4171 90.6487 19.738 90.93 19.0299 90.93Z" stroke="#85383D" stroke-width="0.5" stroke-linecap="round" stroke-linejoin="round"/>
<path d="M19.0299 108C18.5018 108 17.9856 107.843 17.5465 107.55C17.1074 107.257 16.7652 106.84 16.5631 106.352C16.361 105.864 16.3081 105.327 16.4112 104.809C16.5142 104.291 16.7685 103.815 17.1419 103.442C17.5153 103.069 17.991 102.814 18.509 102.711C19.0269 102.608 19.5638 102.661 20.0516 102.863C20.5395 103.065 20.9565 103.408 21.2499 103.847C21.5433 104.286 21.6999 104.802 21.6999 105.33C21.6999 106.038 21.4186 106.717 20.9178 107.218C20.4171 107.719 19.738 108 19.0299 108Z" stroke="#85383D" stroke-width="0.5" stroke-linecap="round" stroke-linejoin="round"/>
<path d="M35.1402 5.59C36.6148 5.59 37.8102 4.3946 37.8102 2.92C37.8102 1.4454 36.6148 0.25 35.1402 0.25C33.6656 0.25 32.4702 1.4454 32.4702 2.92C32.4702 4.3946 33.6656 5.59 35.1402 5.59Z" stroke="#85383D" stroke-width="0.5" stroke-linecap="round" stroke-linejoin="round"/>
<path d="M35.1402 22.6501C34.6117 22.6501 34.0951 22.4932 33.6558 22.1994C33.2165 21.9056 32.8743 21.488 32.6725 20.9995C32.4707 20.511 32.4184 19.9737 32.5223 19.4555C32.6261 18.9373 32.8814 18.4616 33.2558 18.0885C33.6302 17.7155 34.1069 17.462 34.6255 17.3601C35.1441 17.2583 35.6812 17.3126 36.1689 17.5162C36.6566 17.7198 37.0729 18.0636 37.3651 18.504C37.6573 18.9444 37.8122 19.4616 37.8102 19.9901C37.8075 20.6965 37.5251 21.373 37.0246 21.8716C36.5242 22.3701 35.8466 22.6501 35.1402 22.6501V22.6501Z" stroke="#85383D" stroke-width="0.5" stroke-linecap="round" stroke-linejoin="round"/>
<path d="M35.1402 39.73C36.6148 39.73 37.8102 38.5346 37.8102 37.06C37.8102 35.5854 36.6148 34.39 35.1402 34.39C33.6656 34.39 32.4702 35.5854 32.4702 37.06C32.4702 38.5346 33.6656 39.73 35.1402 39.73Z" stroke="#85383D" stroke-width="0.5" stroke-linecap="round" stroke-linejoin="round"/>
<path d="M35.1402 56.79C36.6148 56.79 37.8102 55.5945 37.8102 54.1199C37.8102 52.6453 36.6148 51.45 35.1402 51.45C33.6656 51.45 32.4702 52.6453 32.4702 54.1199C32.4702 55.5945 33.6656 56.79 35.1402 56.79Z" stroke="#85383D" stroke-width="0.5" stroke-linecap="round" stroke-linejoin="round"/>
<path d="M35.1402 73.86C34.6121 73.86 34.0959 73.7034 33.6568 73.41C33.2178 73.1167 32.8756 72.6997 32.6735 72.2118C32.4714 71.7239 32.4185 71.1871 32.5215 70.6691C32.6245 70.1512 32.8788 69.6755 33.2522 69.302C33.6256 68.9286 34.1014 68.6743 34.6193 68.5713C35.1373 68.4683 35.6741 68.5212 36.162 68.7233C36.6499 68.9253 37.0668 69.2676 37.3602 69.7067C37.6536 70.1457 37.8102 70.6619 37.8102 71.19C37.8102 71.8982 37.5289 72.5773 37.0282 73.078C36.5274 73.5787 35.8483 73.86 35.1402 73.86Z" stroke="#85383D" stroke-width="0.5" stroke-linecap="round" stroke-linejoin="round"/>
<path d="M35.1402 90.93C36.6148 90.93 37.8102 89.7346 37.8102 88.26C37.8102 86.7854 36.6148 85.59 35.1402 85.59C33.6656 85.59 32.4702 86.7854 32.4702 88.26C32.4702 89.7346 33.6656 90.93 35.1402 90.93Z" stroke="#85383D" stroke-width="0.5" stroke-linecap="round" stroke-linejoin="round"/>
<path d="M51.2501 5.58C50.5437 5.58 49.8661 5.30008 49.3656 4.80151C48.8652 4.30295 48.5827 3.62639 48.5801 2.92C48.5801 2.21187 48.8614 1.53275 49.3621 1.03202C49.8628 0.531303 50.542 0.25 51.2501 0.25C51.9547 0.255278 52.6287 0.53891 53.1252 1.03906C53.6216 1.53921 53.9001 2.21532 53.9001 2.92C53.8975 3.62294 53.6178 4.2965 53.1216 4.79449C52.6255 5.29249 51.953 5.57474 51.2501 5.58V5.58Z" stroke="#85383D" stroke-width="0.5" stroke-linecap="round" stroke-linejoin="round"/>
<path d="M51.25 22.65C50.7207 22.6539 50.2021 22.5005 49.7602 22.2091C49.3183 21.9177 48.973 21.5015 48.7681 21.0134C48.5633 20.5253 48.5081 19.9873 48.6097 19.4678C48.7112 18.9483 48.9649 18.4707 49.3385 18.0956C49.7121 17.7206 50.1888 17.4651 50.7079 17.3616C51.227 17.2581 51.7652 17.3112 52.2541 17.5142C52.7429 17.7173 53.1604 18.061 53.4535 18.5018C53.7466 18.9427 53.902 19.4606 53.9 19.99C53.8974 20.6929 53.6177 21.3665 53.1216 21.8645C52.6255 22.3625 51.953 22.6447 51.25 22.65Z" stroke="#85383D" stroke-width="0.5" stroke-linecap="round" stroke-linejoin="round"/>
<path d="M51.25 39.7201C50.7207 39.724 50.2021 39.5705 49.7602 39.2791C49.3183 38.9877 48.973 38.5715 48.7681 38.0834C48.5633 37.5953 48.5081 37.0574 48.6097 36.5378C48.7112 36.0183 48.9649 35.5407 49.3385 35.1657C49.7121 34.7907 50.1888 34.5352 50.7079 34.4317C51.227 34.3282 51.7652 34.3813 52.2541 34.5843C52.7429 34.7873 53.1604 35.1311 53.4535 35.5719C53.7466 36.0127 53.902 36.5307 53.9 37.0601C53.8974 37.763 53.6177 38.4366 53.1216 38.9345C52.6255 39.4325 51.953 39.7148 51.25 39.7201V39.7201Z" stroke="#85383D" stroke-width="0.5" stroke-linecap="round" stroke-linejoin="round"/>
<path d="M51.2501 56.79C50.7212 56.794 50.203 56.6407 49.7613 56.3498C49.3196 56.0588 48.9742 55.6432 48.7691 55.1557C48.5639 54.6682 48.5082 54.1307 48.609 53.6115C48.7097 53.0922 48.9624 52.6146 49.335 52.2392C49.7076 51.8638 50.1833 51.6075 50.7018 51.5029C51.2202 51.3982 51.7581 51.4499 52.2471 51.6514C52.7362 51.8529 53.1544 52.1951 53.4486 52.6346C53.7429 53.0741 53.9 53.5911 53.9001 54.12C53.9001 54.8247 53.6215 55.5008 53.1251 56.0009C52.6287 56.5011 51.9547 56.7847 51.2501 56.79V56.79Z" stroke="#85383D" stroke-width="0.5" stroke-linecap="round" stroke-linejoin="round"/>
<path d="M51.2501 73.8599C50.7212 73.8639 50.203 73.7107 49.7613 73.4197C49.3196 73.1288 48.9742 72.7132 48.7691 72.2256C48.5639 71.7381 48.5082 71.2007 48.609 70.6814C48.7097 70.1622 48.9624 69.6846 49.335 69.3092C49.7076 68.9337 50.1833 68.6775 50.7018 68.5728C51.2202 68.4682 51.7581 68.5198 52.2471 68.7213C52.7362 68.9228 53.1544 69.265 53.4486 69.7045C53.7429 70.144 53.9 70.661 53.9001 71.1899C53.9001 71.8946 53.6215 72.5707 53.1251 73.0709C52.6287 73.571 51.9547 73.8547 51.2501 73.8599Z" stroke="#85383D" stroke-width="0.5" stroke-linecap="round" stroke-linejoin="round"/>
<path d="M67.3599 5.59C68.8345 5.59 70.0299 4.3946 70.0299 2.92C70.0299 1.4454 68.8345 0.25 67.3599 0.25C65.8853 0.25 64.6899 1.4454 64.6899 2.92C64.6899 4.3946 65.8853 5.59 67.3599 5.59Z" stroke="#85383D" stroke-width="0.5" stroke-linecap="round" stroke-linejoin="round"/>
<path d="M67.3599 22.6501C66.8314 22.6501 66.3148 22.4932 65.8755 22.1994C65.4362 21.9056 65.094 21.488 64.8922 20.9995C64.6904 20.511 64.6381 19.9737 64.742 19.4555C64.8458 18.9373 65.1011 18.4616 65.4755 18.0885C65.8499 17.7155 66.3266 17.462 66.8452 17.3601C67.3637 17.2583 67.9009 17.3126 68.3886 17.5162C68.8763 17.7198 69.2926 18.0636 69.5848 18.504C69.877 18.9444 70.0319 19.4616 70.0299 19.9901C70.0273 20.6965 69.7448 21.373 69.2444 21.8716C68.7439 22.3701 68.0663 22.6501 67.3599 22.6501V22.6501Z" stroke="#85383D" stroke-width="0.5" stroke-linecap="round" stroke-linejoin="round"/>
<path d="M67.3599 39.73C68.8345 39.73 70.0299 38.5346 70.0299 37.06C70.0299 35.5854 68.8345 34.39 67.3599 34.39C65.8853 34.39 64.6899 35.5854 64.6899 37.06C64.6899 38.5346 65.8853 39.73 67.3599 39.73Z" stroke="#85383D" stroke-width="0.5" stroke-linecap="round" stroke-linejoin="round"/>
<path d="M67.3599 56.79C68.8345 56.79 70.0299 55.5945 70.0299 54.1199C70.0299 52.6453 68.8345 51.45 67.3599 51.45C65.8853 51.45 64.6899 52.6453 64.6899 54.1199C64.6899 55.5945 65.8853 56.79 67.3599 56.79Z" stroke="#85383D" stroke-width="0.5" stroke-linecap="round" stroke-linejoin="round"/>
<path d="M83.4698 5.58002C82.7634 5.58002 82.0858 5.30009 81.5854 4.80153C81.0849 4.30297 80.8025 3.62641 80.7998 2.92002C80.7998 2.21189 81.0811 1.53277 81.5818 1.03204C82.0826 0.531322 82.7617 0.250019 83.4698 0.250019C83.8208 0.248697 84.1686 0.316856 84.4931 0.450568C84.8177 0.58428 85.1126 0.7809 85.3607 1.0291C85.6089 1.27729 85.8056 1.57216 85.9393 1.89669C86.073 2.22123 86.1411 2.56902 86.1398 2.92002C86.1398 3.27018 86.0707 3.61689 85.9364 3.94027C85.8021 4.26365 85.6052 4.55733 85.3572 4.80447C85.1091 5.0516 84.8147 5.24733 84.4908 5.38042C84.1669 5.5135 83.82 5.58134 83.4698 5.58002V5.58002Z" stroke="#85383D" stroke-width="0.5" stroke-linecap="round" stroke-linejoin="round"/>
<path d="M83.4698 22.6501C82.9413 22.6501 82.4247 22.4932 81.9854 22.1994C81.5461 21.9056 81.2039 21.488 81.0021 20.9995C80.8003 20.511 80.748 19.9737 80.8518 19.4555C80.9557 18.9373 81.211 18.4616 81.5854 18.0885C81.9598 17.7155 82.4365 17.462 82.9551 17.3601C83.4736 17.2583 84.0108 17.3126 84.4985 17.5162C84.9862 17.7198 85.4025 18.0636 85.6947 18.504C85.9869 18.9444 86.1418 19.4616 86.1398 19.9901C86.1371 20.6965 85.8547 21.373 85.3542 21.8716C84.8538 22.3701 84.1762 22.6501 83.4698 22.6501V22.6501Z" stroke="#85383D" stroke-width="0.5" stroke-linecap="round" stroke-linejoin="round"/>
<path d="M83.4698 39.72C82.9413 39.72 82.4247 39.5632 81.9854 39.2693C81.5461 38.9755 81.2039 38.5579 81.0021 38.0694C80.8003 37.581 80.748 37.0436 80.8518 36.5254C80.9557 36.0072 81.211 35.5315 81.5854 35.1585C81.9598 34.7855 82.4365 34.532 82.9551 34.4301C83.4736 34.3282 84.0108 34.3825 84.4985 34.5861C84.9862 34.7897 85.4025 35.1335 85.6947 35.5739C85.9869 36.0143 86.1418 36.5315 86.1398 37.06C86.1371 37.7664 85.8547 38.443 85.3542 38.9415C84.8538 39.4401 84.1762 39.72 83.4698 39.72V39.72Z" stroke="#85383D" stroke-width="0.5" stroke-linecap="round" stroke-linejoin="round"/>
<path d="M99.5799 5.58002C99.2289 5.58266 98.8809 5.5158 98.5558 5.38331C98.2308 5.25081 97.9352 5.0553 97.6861 4.80803C97.437 4.56076 97.2392 4.26663 97.1043 3.9426C96.9694 3.61856 96.8999 3.27102 96.8999 2.92002C96.8986 2.56986 96.9664 2.22289 97.0995 1.89901C97.2326 1.57513 97.4283 1.28071 97.6755 1.03265C97.9226 0.784583 98.2163 0.587754 98.5397 0.453452C98.863 0.31915 99.2098 0.250016 99.5599 0.250019C99.9109 0.248697 100.259 0.316856 100.583 0.450568C100.908 0.58428 101.203 0.7809 101.451 1.0291C101.699 1.27729 101.896 1.57216 102.029 1.89669C102.163 2.22123 102.231 2.56902 102.23 2.92002C102.23 3.62377 101.951 4.29884 101.454 4.7974C100.958 5.29596 100.284 5.57737 99.5799 5.58002V5.58002Z" stroke="#85383D" stroke-width="0.5" stroke-linecap="round" stroke-linejoin="round"/>
<path d="M99.5801 22.6501C99.0516 22.6501 98.535 22.4932 98.0957 22.1994C97.6564 21.9056 97.3142 21.488 97.1124 20.9995C96.9106 20.511 96.8584 19.9737 96.9622 19.4555C97.066 18.9373 97.3213 18.4616 97.6957 18.0885C98.0701 17.7155 98.5468 17.462 99.0654 17.3601C99.584 17.2583 100.121 17.3126 100.609 17.5162C101.097 17.7198 101.513 18.0636 101.805 18.504C102.097 18.9444 102.252 19.4616 102.25 19.9901C102.25 20.3402 102.181 20.6869 102.047 21.0103C101.912 21.3337 101.716 21.6274 101.468 21.8745C101.219 22.1216 100.925 22.3174 100.601 22.4505C100.277 22.5835 99.9303 22.6514 99.5801 22.6501Z" stroke="#85383D" stroke-width="0.5" stroke-linecap="round" stroke-linejoin="round"/>
<path d="M115.69 5.58002C114.984 5.58002 114.308 5.29977 113.809 4.80092C113.31 4.30208 113.03 3.62549 113.03 2.92002C113.028 2.56986 113.096 2.22289 113.229 1.89901C113.362 1.57513 113.558 1.28071 113.805 1.03265C114.052 0.784583 114.346 0.587754 114.67 0.453452C114.993 0.31915 115.34 0.250016 115.69 0.250019C116.041 0.248697 116.389 0.316856 116.713 0.450568C117.038 0.58428 117.333 0.7809 117.581 1.0291C117.829 1.27729 118.026 1.57216 118.159 1.89669C118.293 2.22123 118.361 2.56902 118.36 2.92002C118.36 3.27018 118.291 3.61689 118.156 3.94027C118.022 4.26365 117.825 4.55733 117.577 4.80447C117.329 5.0516 117.035 5.24733 116.711 5.38042C116.387 5.5135 116.04 5.58134 115.69 5.58002V5.58002Z" stroke="#85383D" stroke-width="0.5" stroke-linecap="round" stroke-linejoin="round"/>
</g>
<defs>
<clipPath id="clip0">
<rect width="118.61" height="125.32" fill="white"/>
</clipPath>
</defs>
</svg>
