<svg width="42" height="38" viewBox="0 0 42 38" fill="none" xmlns="http://www.w3.org/2000/svg">
<circle cx="19" cy="19" r="19" fill="#672424"/>
<g clip-path="url(#clip0)">
<path d="M25.4896 10.4299C25.5202 10.5935 25.6081 10.7418 25.7384 10.8496C25.8687 10.9575 26.0334 11.0183 26.2046 11.0217C26.415 11.0174 26.615 10.9321 26.7607 10.7848L27.1523 10.4035L28.7038 11.91C28.874 12.0752 29.1049 12.168 29.3456 12.168C29.5863 12.168 29.8171 12.0752 29.9874 11.91L31.1427 10.7881C31.3129 10.6228 31.4085 10.3986 31.4085 10.1649C31.4085 9.93114 31.3129 9.70698 31.1427 9.54166L29.5913 8.03516L29.984 7.65495C30.0873 7.56576 30.1627 7.44998 30.2012 7.321C30.2397 7.19202 30.2398 7.05509 30.2016 6.92603C30.1634 6.79696 30.0884 6.68102 29.9852 6.5916C29.882 6.50217 29.7549 6.44291 29.6185 6.42066L25.4749 5.49824C25.3317 5.46264 25.1811 5.46713 25.0405 5.51121C24.8999 5.55529 24.7751 5.63715 24.6804 5.74731C24.6069 5.83995 24.556 5.94762 24.5316 6.06217C24.5072 6.17673 24.51 6.29517 24.5397 6.40853L25.4896 10.4299ZM28.6969 7.34417L28.6288 7.4103C28.4587 7.57562 28.3631 7.79978 28.3631 8.03351C28.3631 8.26723 28.4587 8.49139 28.6288 8.65671L30.1792 10.1632L29.3461 10.9732L27.7947 9.46672C27.6244 9.30151 27.3936 9.2087 27.1529 9.2087C26.9122 9.2087 26.6813 9.30151 26.5111 9.46672L26.443 9.53284L25.7722 6.69286L28.6969 7.34417Z" fill="white"/>
<path d="M40.0865 14.8248V2.48187C40.0859 1.82442 39.8167 1.19406 39.3379 0.729164C38.8591 0.264273 38.21 0.00284193 37.5329 0.0022583H18.466C17.789 0.00313304 17.14 0.264658 16.6613 0.729486C16.1826 1.19431 15.9133 1.8245 15.9124 2.48187V14.8248C15.3992 14.8436 14.9134 15.0546 14.5569 15.4135C14.2004 15.7724 14.0008 16.2514 14 16.7501V18.0726C14.0009 18.5838 14.2104 19.0738 14.5827 19.4353C14.955 19.7968 15.4597 20.0003 15.9861 20.0012H40.0139C40.5403 20.0003 41.045 19.7968 41.4173 19.4353C41.7896 19.0738 41.9991 18.5838 42 18.0726V16.7501C41.9992 16.2513 41.7994 15.7721 41.4427 15.4131C41.0859 15.0542 40.5999 14.8433 40.0865 14.8248ZM18.4671 1.65423H37.534C37.7598 1.65423 37.9763 1.74131 38.1359 1.89632C38.2955 2.05132 38.3852 2.26156 38.3852 2.48077V14.8237H17.6159V2.48077C17.6162 2.26165 17.706 2.05158 17.8655 1.89664C18.0251 1.7417 18.2414 1.65452 18.4671 1.65423ZM40.2976 18.0748C40.2967 18.1476 40.2665 18.2172 40.2135 18.2686C40.1605 18.3201 40.0888 18.3494 40.0139 18.3503H15.9861C15.9113 18.3491 15.8398 18.3198 15.7868 18.2683C15.7338 18.2169 15.7036 18.1475 15.7024 18.0748V16.7523C15.7033 16.6795 15.7335 16.6099 15.7865 16.5584C15.8395 16.507 15.9112 16.4777 15.9861 16.4768H40.0139C40.0888 16.4777 40.1605 16.507 40.2135 16.5584C40.2665 16.6099 40.2967 16.6795 40.2976 16.7523V18.0748Z" fill="white"/>
</g>
<defs>
<clipPath id="clip0">
<rect width="28" height="20" fill="white" transform="translate(14)"/>
</clipPath>
</defs>
</svg>
