<svg width="43" height="43" viewBox="0 0 43 43" fill="none" xmlns="http://www.w3.org/2000/svg">
<circle cx="19" cy="21.0024" r="19" fill="#672424"/>
<path d="M28.9992 24.5033C22.2453 24.5033 16.749 19.0074 16.749 12.253C16.749 5.49871 22.2453 0.00354004 28.9992 0.00354004C35.7531 0.00354004 41.2494 5.49953 41.2494 12.253C41.2494 19.0065 35.7531 24.5033 28.9992 24.5033ZM28.9992 1.75323C26.9224 1.75323 24.8923 2.36904 23.1655 3.52277C21.4387 4.6765 20.0929 6.31634 19.2981 8.23493C18.5034 10.1535 18.2954 12.2647 18.7006 14.3014C19.1057 16.3382 20.1058 18.2091 21.5743 19.6775C23.0428 21.1459 24.9138 22.1459 26.9507 22.5511C28.9876 22.9562 31.0989 22.7483 33.0176 21.9536C34.9363 21.1589 36.5762 19.8131 37.73 18.0864C38.8838 16.3597 39.4996 14.3297 39.4996 12.253C39.4968 9.46918 38.3896 6.80015 36.421 4.83167C34.4524 2.86319 31.7832 1.75606 28.9992 1.75323Z" fill="white"/>
<path d="M24.6247 42.0028H21.1243C19.9644 42.0015 18.8524 41.5402 18.0323 40.7201C17.2121 39.9 16.7507 38.788 16.7494 37.6282V13.1284C16.7458 13.0112 16.7658 12.8946 16.8082 12.7853C16.8505 12.676 16.9144 12.5763 16.996 12.4922C17.0776 12.4081 17.1753 12.3412 17.2832 12.2955C17.3911 12.2499 17.5071 12.2263 17.6243 12.2263C17.7415 12.2263 17.8575 12.2499 17.9655 12.2955C18.0734 12.3412 18.1711 12.4081 18.2527 12.4922C18.3343 12.5763 18.3981 12.676 18.4405 12.7853C18.4828 12.8946 18.5028 13.0112 18.4992 13.1284V37.6282C18.4992 38.3244 18.7758 38.992 19.2681 39.4843C19.7604 39.9766 20.4281 40.2531 21.1243 40.2531H24.6247C32.8282 40.2531 39.5 33.58 39.5 25.3779V13.1284C39.4965 13.0112 39.5164 12.8946 39.5588 12.7853C39.6011 12.676 39.665 12.5763 39.7466 12.4922C39.8282 12.4081 39.9259 12.3412 40.0338 12.2955C40.1417 12.2499 40.2577 12.2263 40.3749 12.2263C40.4921 12.2263 40.6082 12.2499 40.7161 12.2955C40.824 12.3412 40.9217 12.4081 41.0033 12.4922C41.0849 12.5763 41.1487 12.676 41.1911 12.7853C41.2335 12.8946 41.2534 13.0112 41.2498 13.1284V25.3779C41.2498 34.5447 33.7913 42.0028 24.6247 42.0028Z" fill="white"/>
<path d="M18.9367 41.1274C18.7261 41.1265 18.5229 41.0498 18.3643 40.9112C18.2058 40.7727 18.1025 40.5817 18.0733 40.3731C18.0442 40.1646 18.0913 39.9526 18.2059 39.7759C18.3204 39.5992 18.4948 39.4698 18.6971 39.4113C21.157 38.7001 23.32 37.2108 24.862 35.1666C26.404 33.1225 27.2419 30.6336 27.25 28.0732V23.628C27.2464 23.5109 27.2664 23.3942 27.3088 23.2849C27.3511 23.1756 27.415 23.076 27.4966 22.9919C27.5782 22.9077 27.6758 22.8408 27.7838 22.7952C27.8917 22.7495 28.0077 22.726 28.1249 22.726C28.2421 22.726 28.3581 22.7495 28.4661 22.7952C28.574 22.8408 28.6717 22.9077 28.7532 22.9919C28.8348 23.076 28.8987 23.1756 28.9411 23.2849C28.9834 23.3942 29.0034 23.5109 28.9998 23.628V28.0732C28.9998 34.0876 24.9604 39.4425 19.1787 41.0946C19.0999 41.1166 19.0184 41.1277 18.9367 41.1274Z" fill="white"/>
<path d="M24.6246 15.7531C24.1054 15.7531 23.5979 15.5991 23.1662 15.3107C22.7345 15.0223 22.398 14.6123 22.1993 14.1326C22.0006 13.653 21.9487 13.1252 22.05 12.616C22.1512 12.1068 22.4013 11.6391 22.7684 11.272C23.1355 10.9049 23.6033 10.6549 24.1125 10.5536C24.6217 10.4523 25.1495 10.5043 25.6292 10.703C26.1089 10.9017 26.5189 11.2381 26.8073 11.6698C27.0958 12.1015 27.2497 12.609 27.2497 13.1281C27.2497 13.8243 26.9731 14.492 26.4808 14.9842C25.9885 15.4765 25.3208 15.7531 24.6246 15.7531ZM24.6246 12.2529C24.4515 12.2527 24.2822 12.3039 24.1381 12.4C23.994 12.4961 23.8817 12.6327 23.8154 12.7926C23.749 12.9525 23.7315 13.1285 23.7652 13.2984C23.7989 13.4682 23.8822 13.6242 24.0046 13.7467C24.127 13.8692 24.2829 13.9527 24.4527 13.9865C24.6225 14.0203 24.7986 14.0031 24.9586 13.9368C25.1186 13.8706 25.2553 13.7584 25.3515 13.6145C25.4477 13.4705 25.4991 13.3013 25.4991 13.1281C25.4987 12.8963 25.4064 12.674 25.2425 12.51C25.0787 12.346 24.8565 12.2535 24.6246 12.2529Z" fill="white"/>
<path d="M33.3746 15.7531C32.8554 15.7531 32.3479 15.5991 31.9162 15.3107C31.4845 15.0223 31.148 14.6123 30.9493 14.1326C30.7506 13.653 30.6987 13.1252 30.8 12.616C30.9012 12.1068 31.1513 11.6391 31.5184 11.272C31.8855 10.9049 32.3533 10.6549 32.8625 10.5536C33.3717 10.4523 33.8995 10.5043 34.3792 10.703C34.8589 10.9017 35.2688 11.2381 35.5573 11.6698C35.8457 12.1015 35.9997 12.609 35.9997 13.1281C35.9997 13.8243 35.7231 14.492 35.2308 14.9842C34.7385 15.4765 34.0708 15.7531 33.3746 15.7531ZM33.3746 12.2529C33.2015 12.2529 33.0323 12.3042 32.8883 12.4004C32.7444 12.4965 32.6322 12.6332 32.5659 12.7932C32.4997 12.9531 32.4823 13.1291 32.5161 13.2989C32.5499 13.4687 32.6333 13.6246 32.7557 13.747C32.8781 13.8694 33.0341 13.9528 33.2038 13.9866C33.3736 14.0203 33.5496 14.003 33.7096 13.9368C33.8695 13.8705 34.0062 13.7583 34.1024 13.6144C34.1986 13.4705 34.2499 13.3012 34.2499 13.1281C34.2497 12.8961 34.1574 12.6736 33.9933 12.5095C33.8292 12.3454 33.6067 12.2531 33.3746 12.2529Z" fill="white"/>
<path d="M28.9991 10.5023C28.792 10.502 28.5916 10.4283 28.4336 10.2944C28.2757 10.1604 28.1702 9.97484 28.1361 9.77055C27.8969 8.3646 27.266 7.05461 26.3158 5.99103C25.3656 4.92745 24.1348 4.1534 22.7645 3.75778L15.6324 1.71934C15.4092 1.65538 15.2205 1.50537 15.1079 1.3023C14.9953 1.09924 14.968 0.859763 15.0319 0.63655C15.0959 0.413337 15.2459 0.224676 15.449 0.112068C15.6521 -0.00053952 15.8916 -0.0278686 16.1148 0.0360929L23.2469 2.07453C24.4828 2.43124 25.6317 3.03942 26.6215 3.86095C27.6114 4.68248 28.4208 5.69964 28.9991 6.84866C29.5776 5.6996 30.3871 4.68233 31.3769 3.86056C32.3667 3.03878 33.5155 2.43019 34.7514 2.07289L41.8834 0.033632C42.1068 -0.0301119 42.3463 -0.00253099 42.5493 0.110307C42.7523 0.223146 42.9021 0.411998 42.9659 0.635319C43.0296 0.858641 43.0021 1.09814 42.8892 1.30112C42.7764 1.50411 42.5875 1.65396 42.3642 1.7177L35.2337 3.75614C33.8634 4.15193 32.6324 4.92626 31.6824 5.99015C30.7323 7.05405 30.1017 8.36436 29.8629 9.77055C29.8288 9.97498 29.7232 10.1607 29.5651 10.2947C29.4069 10.4286 29.2064 10.5022 28.9991 10.5023Z" fill="white"/>
</svg>
