<svg width="42" height="39" viewBox="0 0 42 39" fill="none" xmlns="http://www.w3.org/2000/svg">
<circle cx="19" cy="20" r="19" fill="#672424"/>
<g clip-path="url(#clip0)">
<path d="M28 0C25.2311 0 22.5243 0.821085 20.222 2.35942C17.9197 3.89776 16.1253 6.08426 15.0657 8.64243C14.0061 11.2006 13.7288 14.0155 14.269 16.7313C14.8092 19.447 16.1426 21.9415 18.1005 23.8995C20.0584 25.8574 22.553 27.1908 25.2687 27.731C27.9845 28.2712 30.7994 27.9939 33.3576 26.9343C35.9157 25.8747 38.1022 24.0803 39.6406 21.778C41.1789 19.4757 42 16.7689 42 14C41.9958 10.2883 40.5194 6.72976 37.8948 4.10517C35.2702 1.48057 31.7117 0.00422065 28 0V0ZM28.92 26.1281V24.2525C28.92 24.0085 28.8231 23.7745 28.6505 23.602C28.478 23.4294 28.244 23.3325 28 23.3325C27.756 23.3325 27.522 23.4294 27.3495 23.602C27.1769 23.7745 27.08 24.0085 27.08 24.2525V26.1281C24.1826 25.9046 21.4606 24.6524 19.4056 22.5977C17.3507 20.5429 16.0982 17.8211 15.8744 14.9237H17.7463C17.9903 14.9237 18.2243 14.8267 18.3968 14.6542C18.5693 14.4817 18.6663 14.2477 18.6663 14.0037C18.6663 13.7597 18.5693 13.5257 18.3968 13.3531C18.2243 13.1806 17.9903 13.0837 17.7463 13.0837H15.8744C16.0979 10.1861 17.3503 7.46393 19.4053 5.40893C21.4603 3.35393 24.1824 2.10156 27.08 1.87803V3.74625C27.08 3.99025 27.1769 4.22426 27.3495 4.39679C27.522 4.56933 27.756 4.66626 28 4.66626C28.244 4.66626 28.478 4.56933 28.6505 4.39679C28.8231 4.22426 28.92 3.99025 28.92 3.74625V1.87435C31.818 2.09732 34.5408 3.34944 36.5963 5.40449C38.6518 7.45955 39.9045 10.182 40.1281 13.08H38.2525C38.0085 13.08 37.7745 13.1769 37.602 13.3495C37.4294 13.522 37.3325 13.756 37.3325 14C37.3325 14.244 37.4294 14.478 37.602 14.6505C37.7745 14.8231 38.0085 14.92 38.2525 14.92H40.1281C39.9051 17.8184 38.6526 20.5415 36.597 22.597C34.5415 24.6526 31.8184 25.905 28.92 26.1281Z" fill="white"/>
<path d="M33.9431 13.0799H28.8034L24.6585 6.63257C24.5265 6.42728 24.3185 6.28281 24.08 6.23093C23.8416 6.17906 23.5923 6.22403 23.387 6.35595C23.1817 6.48787 23.0373 6.69594 22.9854 6.93439C22.9335 7.17283 22.9785 7.42211 23.1104 7.6274L27.5264 14.4968C27.5459 14.5271 27.5672 14.5562 27.5902 14.5838L27.6086 14.6035C27.6252 14.6228 27.6429 14.6412 27.6614 14.6587L27.692 14.6857C27.7087 14.701 27.7264 14.7153 27.7448 14.7286L27.773 14.7507C27.8008 14.7701 27.8299 14.7878 27.8601 14.8034H27.8723C27.8992 14.8181 27.9271 14.8308 27.9558 14.8414L27.9815 14.8513C28.0061 14.8598 28.0318 14.8684 28.0563 14.8746L28.0858 14.8832L28.1631 14.8967H28.1913C28.2232 14.8967 28.2563 14.8967 28.2894 14.8967H33.9382C34.1822 14.8967 34.4162 14.7997 34.5888 14.6272C34.7613 14.4547 34.8582 14.2206 34.8582 13.9766C34.8582 13.7326 34.7613 13.4986 34.5888 13.3261C34.4162 13.1536 34.1822 13.0566 33.9382 13.0566L33.9431 13.0799Z" fill="white"/>
</g>
<defs>
<clipPath id="clip0">
<rect width="28" height="28" fill="white" transform="translate(14)"/>
</clipPath>
</defs>
</svg>
