<svg width="43" height="41" viewBox="0 0 43 41" fill="none" xmlns="http://www.w3.org/2000/svg">
<circle cx="19" cy="22" r="19" fill="#672424"/>
<g clip-path="url(#clip0)">
<path d="M42.7152 10.6386L32.2939 0.282949C32.2035 0.193187 32.0962 0.121999 31.9781 0.07345C31.86 0.024901 31.7335 -5.74336e-05 31.6057 9.92393e-08H18.578C17.6293 0.00119429 16.7198 0.376235 16.0491 1.04285C15.3783 1.70947 15.001 2.61323 15 3.55588V29.4448C15.0012 30.3873 15.3786 31.2909 16.0493 31.9574C16.72 32.6239 17.6294 32.9988 18.578 33H39.422C40.3706 32.999 41.2801 32.6241 41.9509 31.9576C42.6217 31.2911 42.999 30.3874 43 29.4448V11.3225C43.0001 11.1955 42.9749 11.0697 42.9261 10.9524C42.8772 10.8351 42.8056 10.7285 42.7152 10.6386ZM32.5786 3.30064L39.6782 10.3557H34.2107C33.7779 10.3552 33.363 10.1841 33.057 9.87992C32.751 9.57578 32.579 9.16344 32.5786 8.7334V3.30064ZM39.422 31.0664H18.578C18.1453 31.0659 17.7305 30.8949 17.4246 30.5909C17.1186 30.2869 16.9465 29.8747 16.946 29.4448V3.55588C16.9463 3.12584 17.1184 2.7135 17.4243 2.40935C17.7303 2.10521 18.1452 1.93411 18.578 1.93359H30.6327V8.7334C30.6337 9.67605 31.011 10.5798 31.6817 11.2464C32.3525 11.913 33.262 12.2881 34.2107 12.2893H41.054V29.4448C41.0535 29.8747 40.8814 30.2869 40.5754 30.5909C40.2695 30.8949 39.8547 31.0659 39.422 31.0664Z" fill="white"/>
<path d="M27.2649 16.0675C27.1841 15.907 27.0598 15.772 26.9061 15.6776C26.7525 15.5832 26.5754 15.5333 26.3947 15.5333C26.214 15.5333 26.0369 15.5832 25.8833 15.6776C25.7296 15.772 25.6054 15.907 25.5245 16.0675L20.3132 26.4258C20.256 26.5394 20.222 26.663 20.2129 26.7897C20.2038 26.9164 20.22 27.0436 20.2604 27.1641C20.3008 27.2845 20.3647 27.3959 20.4485 27.4919C20.5322 27.5878 20.6341 27.6664 20.7484 27.7232C20.9793 27.8379 21.2466 27.8568 21.4915 27.7757C21.6127 27.7355 21.7248 27.672 21.8214 27.5888C21.9179 27.5056 21.997 27.4043 22.0542 27.2907L23.611 24.2002H29.1823L30.7391 27.2907C30.8633 27.5039 31.0648 27.6619 31.3023 27.7324C31.5398 27.803 31.7955 27.7808 32.0171 27.6704C32.2387 27.56 32.4095 27.3698 32.4948 27.1385C32.58 26.9071 32.5731 26.6522 32.4756 26.4258L27.2649 16.0675ZM24.582 22.264L26.3944 18.6618L28.2106 22.264H24.582Z" fill="white"/>
<path d="M36.8171 18.1223H35.1838V16.5C35.1838 16.2436 35.0813 15.9977 34.8988 15.8164C34.7163 15.6351 34.4689 15.5332 34.2108 15.5332C33.9528 15.5332 33.7053 15.6351 33.5228 15.8164C33.3403 15.9977 33.2378 16.2436 33.2378 16.5V18.1223H31.6058C31.3477 18.1223 31.1003 18.2241 30.9178 18.4055C30.7353 18.5868 30.6328 18.8327 30.6328 19.0891C30.6328 19.3455 30.7353 19.5914 30.9178 19.7727C31.1003 19.954 31.3477 20.0559 31.6058 20.0559H33.2378V21.6782C33.2378 21.9346 33.3403 22.1805 33.5228 22.3618C33.7053 22.5431 33.9528 22.645 34.2108 22.645C34.4689 22.645 34.7163 22.5431 34.8988 22.3618C35.0813 22.1805 35.1838 21.9346 35.1838 21.6782V20.0559H36.8171C37.0752 20.0559 37.3227 19.954 37.5051 19.7727C37.6876 19.5914 37.7901 19.3455 37.7901 19.0891C37.7901 18.8327 37.6876 18.5868 37.5051 18.4055C37.3227 18.2241 37.0752 18.1223 36.8171 18.1223Z" fill="white"/>
</g>
<defs>
<clipPath id="clip0">
<rect width="28" height="33" fill="white" transform="translate(15)"/>
</clipPath>
</defs>
</svg>
