<svg width="42" height="40" viewBox="0 0 42 40" fill="none" xmlns="http://www.w3.org/2000/svg">
<circle cx="19" cy="20.0044" r="19" fill="#672424"/>
<path d="M38.5341 16.8902V9.47461H36.8935C36.6743 9.47461 36.4642 9.38755 36.3092 9.23258C36.1542 9.07762 36.0672 8.86744 36.0672 8.64828C36.0672 8.42913 36.1542 8.21895 36.3092 8.06398C36.4642 7.90901 36.6743 7.82195 36.8935 7.82195H38.5341V2.47023H34.8263C34.8263 1.81509 34.5661 1.18677 34.1028 0.723515C33.6395 0.260256 33.0112 0 32.3561 0C31.7009 0 31.0726 0.260256 30.6094 0.723515C30.1461 1.18677 29.8858 1.81509 29.8858 2.47023H22.4702V4.11086C22.4702 4.33002 22.3832 4.54019 22.2282 4.69516C22.0732 4.85013 21.863 4.93719 21.6439 4.93719C21.4247 4.93719 21.2146 4.85013 21.0596 4.69516C20.9046 4.54019 20.8176 4.33002 20.8176 4.11086V2.47023H15.4658V6.17805C14.8107 6.17805 14.1824 6.4383 13.7191 6.90156C13.2559 7.36482 12.9956 7.99313 12.9956 8.64828C12.9956 9.30343 13.2559 9.93174 13.7191 10.395C14.1824 10.8583 14.8107 11.1185 15.4658 11.1185V18.5341H17.1065C17.3256 18.5341 17.5358 18.6212 17.6908 18.7762C17.8457 18.9311 17.9328 19.1413 17.9328 19.3605C17.9328 19.5796 17.8457 19.7898 17.6908 19.9448C17.5358 20.0997 17.3256 20.1868 17.1065 20.1868H15.4658V25.5385H19.1737C19.1737 26.1937 19.4339 26.822 19.8972 27.2852C20.3604 27.7485 20.9887 28.0088 21.6439 28.0088C22.299 28.0088 22.9273 27.7485 23.3906 27.2852C23.8539 26.822 24.1141 26.1937 24.1141 25.5385H31.5297V23.8979C31.5297 23.6787 31.6168 23.4686 31.7718 23.3136C31.9267 23.1586 32.1369 23.0716 32.3561 23.0716C32.5752 23.0716 32.7854 23.1586 32.9404 23.3136C33.0953 23.4686 33.1824 23.6787 33.1824 23.8979V25.5385H38.5341V21.8307C39.1893 21.8307 39.8176 21.5704 40.2808 21.1072C40.7441 20.6439 41.0044 20.0156 41.0044 19.3605C41.0044 18.7053 40.7441 18.077 40.2808 17.6137C39.8176 17.1505 39.1893 16.8902 38.5341 16.8902ZM31.5297 4.11414V2.47352C31.5297 2.25436 31.6168 2.04418 31.7718 1.88921C31.9267 1.73425 32.1369 1.64719 32.3561 1.64719C32.5752 1.64719 32.7854 1.73425 32.9404 1.88921C33.0953 2.04418 33.1824 2.25436 33.1824 2.47352V4.11414H36.8902V6.17805C36.2351 6.17805 35.6068 6.4383 35.1435 6.90156C34.6802 7.36482 34.42 7.99313 34.42 8.64828C34.42 9.30343 34.6802 9.93174 35.1435 10.395C35.6068 10.8583 36.2351 11.1185 36.8902 11.1185V13.1841H33.1824V14.8247C33.1824 15.0438 33.0953 15.254 32.9404 15.409C32.7854 15.564 32.5752 15.651 32.3561 15.651C32.1369 15.651 31.9267 15.564 31.7718 15.409C31.6168 15.254 31.5297 15.0438 31.5297 14.8247V13.1841H27.8203V11.1185C28.4754 11.1185 29.1038 10.8583 29.567 10.395C30.0303 9.93174 30.2905 9.30343 30.2905 8.64828C30.2905 7.99313 30.0303 7.36482 29.567 6.90156C29.1038 6.4383 28.4754 6.17805 27.8203 6.17805V4.11414H31.5297ZM14.6439 8.64828C14.6449 8.42969 14.7324 8.22038 14.8872 8.06606C15.042 7.91175 15.2516 7.82497 15.4702 7.82469H17.1108V4.11414H19.1747C19.1747 4.76929 19.435 5.3976 19.8983 5.86086C20.3615 6.32412 20.9898 6.58437 21.645 6.58437C22.3001 6.58437 22.9284 6.32412 23.3917 5.86086C23.855 5.3976 24.1152 4.76929 24.1152 4.11414H26.1797V7.82469H27.8203C28.0394 7.82469 28.2496 7.91175 28.4046 8.06671C28.5596 8.22168 28.6466 8.43186 28.6466 8.65102C28.6466 8.87017 28.5596 9.08035 28.4046 9.23532C28.2496 9.39028 28.0394 9.47734 27.8203 9.47734H26.1797V13.1841H24.1141C24.1141 12.5289 23.8539 11.9006 23.3906 11.4373C22.9273 10.9741 22.299 10.7138 21.6439 10.7138C20.9887 10.7138 20.3604 10.9741 19.8972 11.4373C19.4339 11.9006 19.1737 12.5289 19.1737 13.1841H17.1097V9.47625H15.4691C15.2501 9.47596 15.04 9.38881 14.8851 9.2339C14.7302 9.079 14.6431 8.86899 14.6428 8.64992L14.6439 8.64828ZM22.4702 23.8946V25.5352C22.4702 25.7544 22.3832 25.9646 22.2282 26.1195C22.0732 26.2745 21.863 26.3616 21.6439 26.3616C21.4247 26.3616 21.2146 26.2745 21.0596 26.1195C20.9046 25.9646 20.8176 25.7544 20.8176 25.5352V23.8946H17.1097V21.8307C17.7649 21.8307 18.3932 21.5704 18.8565 21.1072C19.3197 20.6439 19.58 20.0156 19.58 19.3605C19.58 18.7053 19.3197 18.077 18.8565 17.6137C18.3932 17.1505 17.7649 16.8902 17.1097 16.8902V14.8247H20.8203V13.1841C20.8203 12.9649 20.9074 12.7547 21.0623 12.5998C21.2173 12.4448 21.4275 12.3577 21.6466 12.3577C21.8658 12.3577 22.076 12.4448 22.2309 12.5998C22.3859 12.7547 22.4729 12.9649 22.4729 13.1841V14.8247H26.1797V16.8886C25.5245 16.8886 24.8962 17.1488 24.4329 17.6121C23.9697 18.0754 23.7094 18.7037 23.7094 19.3588C23.7094 20.014 23.9697 20.6423 24.4329 21.1055C24.8962 21.5688 25.5245 21.8291 26.1797 21.8291V23.893L22.4702 23.8946ZM38.5297 20.1868H36.8891V23.8946H34.8263C34.8263 23.2395 34.5661 22.6111 34.1028 22.1479C33.6395 21.6846 33.0112 21.4244 32.3561 21.4244C31.7009 21.4244 31.0726 21.6846 30.6094 22.1479C30.1461 22.6111 29.8858 23.2395 29.8858 23.8946H27.8203V20.1868H26.1797C25.9605 20.1868 25.7503 20.0997 25.5954 19.9448C25.4404 19.7898 25.3533 19.5796 25.3533 19.3605C25.3533 19.1413 25.4404 18.9311 25.5954 18.7762C25.7503 18.6212 25.9605 18.5341 26.1797 18.5341H27.8203V14.8247H29.8842C29.8842 15.4798 30.1445 16.1081 30.6077 16.5714C31.071 17.0347 31.6993 17.2949 32.3544 17.2949C33.0096 17.2949 33.6379 17.0347 34.1012 16.5714C34.5644 16.1081 34.8247 15.4798 34.8247 14.8247H36.8886V18.5325H38.5292C38.7484 18.5325 38.9585 18.6196 39.1135 18.7745C39.2685 18.9295 39.3555 19.1397 39.3555 19.3588C39.3555 19.578 39.2685 19.7882 39.1135 19.9431C38.9585 20.0981 38.7484 20.1852 38.5292 20.1852L38.5297 20.1868Z" fill="white"/>
</svg>
