<svg width="41" height="38" viewBox="0 0 41 38" fill="none" xmlns="http://www.w3.org/2000/svg">
<circle cx="19" cy="19" r="19" fill="#672424"/>
<g clip-path="url(#clip0)">
<path d="M14.6408 18.5466V7.03385L13.5334 6.61386C13.3768 6.5544 13.2419 6.44779 13.1466 6.30829C13.0514 6.1688 13.0003 6.00307 13.0003 5.8333C13.0003 5.66353 13.0514 5.4978 13.1466 5.35831C13.2419 5.21881 13.3768 5.1122 13.5334 5.05275L26.7131 0.0527515C26.8982 -0.017828 27.1022 -0.017828 27.2873 0.0527515L40.467 5.05275C40.6235 5.1122 40.7584 5.21881 40.8537 5.35831C40.949 5.4978 41 5.66353 41 5.8333C41 6.00307 40.949 6.1688 40.8537 6.30829C40.7584 6.44779 40.6235 6.5544 40.467 6.61386L35.0053 8.68608C36.2971 12.3922 35.9722 14.3416 36.0236 15C36.0236 15.1361 35.9908 15.2703 35.928 15.3906C35.8652 15.5109 35.7743 15.6137 35.6633 15.6901C35.5523 15.7665 35.4245 15.814 35.2912 15.8286C35.1579 15.8432 35.0232 15.8244 34.8987 15.7738C34.8796 15.7661 32.9731 15 31.1017 15C29.3709 15 27.5301 16.47 27.5126 16.4838C27.3671 16.602 27.1864 16.6664 27.0002 16.6664C26.8139 16.6664 26.6332 16.602 26.4877 16.4838C25.9797 16.0711 24.3451 15 22.8986 15C21.0392 15 19.1202 15.7661 19.1016 15.7738C18.9772 15.8244 18.8424 15.8432 18.7091 15.8286C18.5758 15.814 18.4481 15.7665 18.3371 15.6901C18.2261 15.6137 18.1352 15.5109 18.0724 15.3906C18.0095 15.2703 17.9767 15.1361 17.9767 15C18.0243 14.3916 17.7088 12.3727 18.995 8.68608L16.2814 7.65663V18.5455C16.703 18.7772 17.0711 19.1922 17.3549 19.7677C17.7208 20.5133 17.922 21.4827 17.922 22.4999V24.1666C17.922 24.3876 17.8356 24.5996 17.6818 24.7559C17.5279 24.9121 17.3193 24.9999 17.1017 24.9999H13.8205C13.6029 24.9999 13.3943 24.9121 13.2404 24.7559C13.0866 24.5996 13.0002 24.3876 13.0002 24.1666V22.4999C13.0002 21.4827 13.2014 20.5133 13.5673 19.77C13.8511 19.1933 14.2191 18.7783 14.6408 18.5477V18.5466ZM27.0002 1.72219L16.1655 5.8333L27.0002 9.94441L37.8349 5.8333L27.0002 1.72219ZM19.6239 13.8455C20.4656 13.6027 21.6741 13.3333 22.8986 13.3333C24.5764 13.3333 26.2001 14.2677 27.0002 14.8088C27.8002 14.2677 29.4239 13.3333 31.1017 13.3333C32.3262 13.3333 33.5348 13.6027 34.3764 13.8455C34.3288 12.1516 34.033 10.8894 33.4681 9.26885L27.2884 11.6138C27.1033 11.6844 26.8993 11.6844 26.7142 11.6138L20.5345 9.26885C19.9673 10.8889 19.672 12.1516 19.6239 13.8455ZM14.6408 23.3333H16.2814V22.4999C16.2814 21.7477 16.1376 21.0244 15.8877 20.5155C15.6777 20.0894 15.4895 20 15.4611 20C15.4327 20 15.2423 20.0894 15.0345 20.5155C14.7846 21.0244 14.6408 21.7477 14.6408 22.4999V23.3333Z" fill="white"/>
</g>
<defs>
<clipPath id="clip0">
<rect width="28" height="25" fill="white" transform="matrix(-1 0 0 1 41 0)"/>
</clipPath>
</defs>
</svg>
