<svg width="27" height="51" viewBox="0 0 27 51" fill="none" xmlns="http://www.w3.org/2000/svg">
<g clip-path="url(#clip0)">
<path d="M26.3374 12.8547L14.0387 0.66622C13.7444 0.374603 13.2673 0.374593 12.9731 0.66621L0.674332 12.8547C0.380075 13.1463 0.380095 13.6191 0.674351 13.9107L12.9731 26.0992C13.2673 26.3908 13.7444 26.3908 14.0387 26.0991L26.3374 13.9107C26.6316 13.6191 26.6317 13.1463 26.3374 12.8547Z" stroke="#DDC6B4" stroke-miterlimit="10"/>
<path d="M18.9607 13.1538L13.7342 7.97419C13.6081 7.84921 13.4036 7.84919 13.2775 7.97417L8.05103 13.1538C7.92492 13.2788 7.92494 13.4814 8.05105 13.6064L13.2775 18.786C13.4036 18.911 13.6081 18.911 13.7342 18.786L18.9607 13.6064C19.0868 13.4814 19.0868 13.2788 18.9607 13.1538Z" fill="#CA8879"/>
<path d="M18.9627 45.279L13.7362 40.0994C13.6101 39.9745 13.4056 39.9744 13.2795 40.0994L8.05298 45.279C7.92688 45.404 7.92691 45.6067 8.05302 45.7316L13.2795 50.9112C13.4056 51.0362 13.6101 51.0362 13.7362 50.9112L18.9626 45.7316C19.0887 45.6067 19.0888 45.404 18.9627 45.279Z" fill="#CA8879"/>
</g>
<defs>
<clipPath id="clip0">
<rect width="27" height="51" fill="white"/>
</clipPath>
</defs>
</svg>
