<svg width="42" height="32" viewBox="0 0 42 32" fill="none" xmlns="http://www.w3.org/2000/svg">
<g clip-path="url(#clip0)">
<path d="M18.7814 32H-0.000358347V15.8576C-0.113393 13.72 0.301507 11.5875 1.20768 9.64843C2.11384 7.7094 3.48338 6.02355 5.19527 4.73986C6.76216 3.55088 8.49376 2.59659 10.3355 1.90702C12.2177 1.19486 14.0814 0.559182 15.9266 0L18.6944 5.03264C17.4648 5.47578 16.2678 6.00461 15.1121 6.61523C14.2177 7.08991 13.3972 7.69234 12.6764 8.40356C12.0646 9.03357 11.593 9.78594 11.2924 10.6113C10.9832 11.5502 10.8362 12.5349 10.8575 13.5232H18.7656L18.7814 32ZM41.9996 32H23.2653V15.8576C23.1546 13.7219 23.569 11.5917 24.472 9.65347C25.375 7.71524 26.7392 6.02812 28.4451 4.73986C29.9985 3.54771 31.7201 2.59301 33.5538 1.90702C35.4438 1.19486 37.3022 0.56182 39.1527 0L41.9601 5.03264C40.7305 5.47578 39.5334 6.00461 38.3777 6.61523C37.4834 7.08991 36.6629 7.69234 35.942 8.40356C35.3278 9.0316 34.8558 9.78455 34.5581 10.6113C34.2489 11.5502 34.1018 12.5349 34.1232 13.5232H42.0313L41.9996 32Z" fill="#85383D"/>
</g>
<defs>
<clipPath id="clip0">
<rect width="42" height="32" fill="white"/>
</clipPath>
</defs>
</svg>
