<svg width="18" height="14" viewBox="0 0 18 14" fill="none" xmlns="http://www.w3.org/2000/svg">
<g clip-path="url(#clip0)">
<path d="M16.1501 0.200057C16.0171 0.0681535 15.8374 -0.00585938 15.6501 -0.00585938C15.4628 -0.00585938 15.283 0.0681535 15.1501 0.200057L6.92006 8.43006L2.68006 4.16006C2.54708 4.02815 2.36736 3.95414 2.18006 3.95414C1.99275 3.95414 1.81304 4.02815 1.68006 4.16006L0.200057 5.63006C0.0681535 5.76304 -0.00585937 5.94275 -0.00585938 6.13006C-0.00585938 6.31736 0.0681535 6.49708 0.200057 6.63006L6.42006 12.8901C6.55304 13.022 6.73275 13.096 6.92006 13.096C7.10736 13.096 7.28708 13.022 7.42006 12.8901L17.6301 2.68006C17.6966 2.61488 17.7494 2.53709 17.7855 2.45123C17.8216 2.36538 17.8402 2.27319 17.8402 2.18006C17.8402 2.08693 17.8216 1.99474 17.7855 1.90888C17.7494 1.82303 17.6966 1.74523 17.6301 1.68006L16.1501 0.200057Z" fill="#DDC6B4"/>
</g>
<defs>
<clipPath id="clip0">
<rect width="17.84" height="13.1" fill="white"/>
</clipPath>
</defs>
</svg>
